<mxfile host="app.diagrams.net" modified="2024-07-20T14:49:20.803Z" agent="Mozilla/5.0 (X11; Linux x86_64; rv:128.0) Gecko/20100101 Firefox/128.0" etag="2c9se4J0MuDAGoPorANR" version="24.7.2" type="device">
  <diagram name="Pagina-1" id="4wT0QDzga6uswOmBh6WW">
    <mxGraphModel dx="2206" dy="2331" grid="1" gridSize="10" guides="1" tooltips="1" connect="1" arrows="1" fold="1" page="1" pageScale="1" pageWidth="827" pageHeight="1169" math="0" shadow="0">
      <root>
        <mxCell id="0" />
        <mxCell id="1" parent="0" />
        <mxCell id="YWg9dcSxjDB22ZO5rKcu-1" value="users" style="shape=table;startSize=30;container=1;collapsible=1;childLayout=tableLayout;fixedRows=1;rowLines=0;fontStyle=1;align=center;resizeLast=1;html=1;" parent="1" vertex="1">
          <mxGeometry x="110" y="80" width="180" height="440" as="geometry" />
        </mxCell>
        <mxCell id="YWg9dcSxjDB22ZO5rKcu-2" value="" style="shape=tableRow;horizontal=0;startSize=0;swimlaneHead=0;swimlaneBody=0;fillColor=none;collapsible=0;dropTarget=0;points=[[0,0.5],[1,0.5]];portConstraint=eastwest;top=0;left=0;right=0;bottom=1;" parent="YWg9dcSxjDB22ZO5rKcu-1" vertex="1">
          <mxGeometry y="30" width="180" height="50" as="geometry" />
        </mxCell>
        <mxCell id="YWg9dcSxjDB22ZO5rKcu-3" value="PK" style="shape=partialRectangle;connectable=0;fillColor=none;top=0;left=0;bottom=0;right=0;fontStyle=1;overflow=hidden;whiteSpace=wrap;html=1;" parent="YWg9dcSxjDB22ZO5rKcu-2" vertex="1">
          <mxGeometry width="30" height="50" as="geometry">
            <mxRectangle width="30" height="50" as="alternateBounds" />
          </mxGeometry>
        </mxCell>
        <mxCell id="YWg9dcSxjDB22ZO5rKcu-4" value="UniqueID [INT UNSIGNED; AUTO_INCREMENT]" style="shape=partialRectangle;connectable=0;fillColor=none;top=0;left=0;bottom=0;right=0;align=left;spacingLeft=6;fontStyle=5;overflow=hidden;whiteSpace=wrap;html=1;" parent="YWg9dcSxjDB22ZO5rKcu-2" vertex="1">
          <mxGeometry x="30" width="150" height="50" as="geometry">
            <mxRectangle width="150" height="50" as="alternateBounds" />
          </mxGeometry>
        </mxCell>
        <mxCell id="YWg9dcSxjDB22ZO5rKcu-5" value="" style="shape=tableRow;horizontal=0;startSize=0;swimlaneHead=0;swimlaneBody=0;fillColor=none;collapsible=0;dropTarget=0;points=[[0,0.5],[1,0.5]];portConstraint=eastwest;top=0;left=0;right=0;bottom=0;" parent="YWg9dcSxjDB22ZO5rKcu-1" vertex="1">
          <mxGeometry y="80" width="180" height="40" as="geometry" />
        </mxCell>
        <mxCell id="YWg9dcSxjDB22ZO5rKcu-6" value="" style="shape=partialRectangle;connectable=0;fillColor=none;top=0;left=0;bottom=0;right=0;editable=1;overflow=hidden;whiteSpace=wrap;html=1;" parent="YWg9dcSxjDB22ZO5rKcu-5" vertex="1">
          <mxGeometry width="30" height="40" as="geometry">
            <mxRectangle width="30" height="40" as="alternateBounds" />
          </mxGeometry>
        </mxCell>
        <mxCell id="YWg9dcSxjDB22ZO5rKcu-7" value="first_name [VARCHAR; NOT NULL]" style="shape=partialRectangle;connectable=0;fillColor=none;top=0;left=0;bottom=0;right=0;align=left;spacingLeft=6;overflow=hidden;whiteSpace=wrap;html=1;" parent="YWg9dcSxjDB22ZO5rKcu-5" vertex="1">
          <mxGeometry x="30" width="150" height="40" as="geometry">
            <mxRectangle width="150" height="40" as="alternateBounds" />
          </mxGeometry>
        </mxCell>
        <mxCell id="YWg9dcSxjDB22ZO5rKcu-8" value="" style="shape=tableRow;horizontal=0;startSize=0;swimlaneHead=0;swimlaneBody=0;fillColor=none;collapsible=0;dropTarget=0;points=[[0,0.5],[1,0.5]];portConstraint=eastwest;top=0;left=0;right=0;bottom=0;" parent="YWg9dcSxjDB22ZO5rKcu-1" vertex="1">
          <mxGeometry y="120" width="180" height="40" as="geometry" />
        </mxCell>
        <mxCell id="YWg9dcSxjDB22ZO5rKcu-9" value="" style="shape=partialRectangle;connectable=0;fillColor=none;top=0;left=0;bottom=0;right=0;editable=1;overflow=hidden;whiteSpace=wrap;html=1;" parent="YWg9dcSxjDB22ZO5rKcu-8" vertex="1">
          <mxGeometry width="30" height="40" as="geometry">
            <mxRectangle width="30" height="40" as="alternateBounds" />
          </mxGeometry>
        </mxCell>
        <mxCell id="YWg9dcSxjDB22ZO5rKcu-10" value="last_name [VARCHAR; NOT NULL]" style="shape=partialRectangle;connectable=0;fillColor=none;top=0;left=0;bottom=0;right=0;align=left;spacingLeft=6;overflow=hidden;whiteSpace=wrap;html=1;" parent="YWg9dcSxjDB22ZO5rKcu-8" vertex="1">
          <mxGeometry x="30" width="150" height="40" as="geometry">
            <mxRectangle width="150" height="40" as="alternateBounds" />
          </mxGeometry>
        </mxCell>
        <mxCell id="YWg9dcSxjDB22ZO5rKcu-11" value="" style="shape=tableRow;horizontal=0;startSize=0;swimlaneHead=0;swimlaneBody=0;fillColor=none;collapsible=0;dropTarget=0;points=[[0,0.5],[1,0.5]];portConstraint=eastwest;top=0;left=0;right=0;bottom=0;" parent="YWg9dcSxjDB22ZO5rKcu-1" vertex="1">
          <mxGeometry y="160" width="180" height="40" as="geometry" />
        </mxCell>
        <mxCell id="YWg9dcSxjDB22ZO5rKcu-12" value="" style="shape=partialRectangle;connectable=0;fillColor=none;top=0;left=0;bottom=0;right=0;editable=1;overflow=hidden;whiteSpace=wrap;html=1;" parent="YWg9dcSxjDB22ZO5rKcu-11" vertex="1">
          <mxGeometry width="30" height="40" as="geometry">
            <mxRectangle width="30" height="40" as="alternateBounds" />
          </mxGeometry>
        </mxCell>
        <mxCell id="YWg9dcSxjDB22ZO5rKcu-13" value="&lt;div&gt;username [VARCHAR; NOT NULL; UNIQUE]&lt;/div&gt;" style="shape=partialRectangle;connectable=0;fillColor=none;top=0;left=0;bottom=0;right=0;align=left;spacingLeft=6;overflow=hidden;whiteSpace=wrap;html=1;" parent="YWg9dcSxjDB22ZO5rKcu-11" vertex="1">
          <mxGeometry x="30" width="150" height="40" as="geometry">
            <mxRectangle width="150" height="40" as="alternateBounds" />
          </mxGeometry>
        </mxCell>
        <mxCell id="YWg9dcSxjDB22ZO5rKcu-80" value="" style="shape=tableRow;horizontal=0;startSize=0;swimlaneHead=0;swimlaneBody=0;fillColor=none;collapsible=0;dropTarget=0;points=[[0,0.5],[1,0.5]];portConstraint=eastwest;top=0;left=0;right=0;bottom=0;" parent="YWg9dcSxjDB22ZO5rKcu-1" vertex="1">
          <mxGeometry y="200" width="180" height="40" as="geometry" />
        </mxCell>
        <mxCell id="YWg9dcSxjDB22ZO5rKcu-81" value="" style="shape=partialRectangle;connectable=0;fillColor=none;top=0;left=0;bottom=0;right=0;editable=1;overflow=hidden;whiteSpace=wrap;html=1;" parent="YWg9dcSxjDB22ZO5rKcu-80" vertex="1">
          <mxGeometry width="30" height="40" as="geometry">
            <mxRectangle width="30" height="40" as="alternateBounds" />
          </mxGeometry>
        </mxCell>
        <mxCell id="YWg9dcSxjDB22ZO5rKcu-82" value="email [VARCHAR; NOT NULL; UNIQUE]" style="shape=partialRectangle;connectable=0;fillColor=none;top=0;left=0;bottom=0;right=0;align=left;spacingLeft=6;overflow=hidden;whiteSpace=wrap;html=1;" parent="YWg9dcSxjDB22ZO5rKcu-80" vertex="1">
          <mxGeometry x="30" width="150" height="40" as="geometry">
            <mxRectangle width="150" height="40" as="alternateBounds" />
          </mxGeometry>
        </mxCell>
        <mxCell id="YWg9dcSxjDB22ZO5rKcu-83" value="" style="shape=tableRow;horizontal=0;startSize=0;swimlaneHead=0;swimlaneBody=0;fillColor=none;collapsible=0;dropTarget=0;points=[[0,0.5],[1,0.5]];portConstraint=eastwest;top=0;left=0;right=0;bottom=0;" parent="YWg9dcSxjDB22ZO5rKcu-1" vertex="1">
          <mxGeometry y="240" width="180" height="40" as="geometry" />
        </mxCell>
        <mxCell id="YWg9dcSxjDB22ZO5rKcu-84" value="" style="shape=partialRectangle;connectable=0;fillColor=none;top=0;left=0;bottom=0;right=0;editable=1;overflow=hidden;whiteSpace=wrap;html=1;" parent="YWg9dcSxjDB22ZO5rKcu-83" vertex="1">
          <mxGeometry width="30" height="40" as="geometry">
            <mxRectangle width="30" height="40" as="alternateBounds" />
          </mxGeometry>
        </mxCell>
        <mxCell id="YWg9dcSxjDB22ZO5rKcu-85" value="password [VARCHAR; NOT NULL]" style="shape=partialRectangle;connectable=0;fillColor=none;top=0;left=0;bottom=0;right=0;align=left;spacingLeft=6;overflow=hidden;whiteSpace=wrap;html=1;" parent="YWg9dcSxjDB22ZO5rKcu-83" vertex="1">
          <mxGeometry x="30" width="150" height="40" as="geometry">
            <mxRectangle width="150" height="40" as="alternateBounds" />
          </mxGeometry>
        </mxCell>
        <mxCell id="YWg9dcSxjDB22ZO5rKcu-86" value="" style="shape=tableRow;horizontal=0;startSize=0;swimlaneHead=0;swimlaneBody=0;fillColor=none;collapsible=0;dropTarget=0;points=[[0,0.5],[1,0.5]];portConstraint=eastwest;top=0;left=0;right=0;bottom=0;" parent="YWg9dcSxjDB22ZO5rKcu-1" vertex="1">
          <mxGeometry y="280" width="180" height="40" as="geometry" />
        </mxCell>
        <mxCell id="YWg9dcSxjDB22ZO5rKcu-87" value="" style="shape=partialRectangle;connectable=0;fillColor=none;top=0;left=0;bottom=0;right=0;editable=1;overflow=hidden;whiteSpace=wrap;html=1;" parent="YWg9dcSxjDB22ZO5rKcu-86" vertex="1">
          <mxGeometry width="30" height="40" as="geometry">
            <mxRectangle width="30" height="40" as="alternateBounds" />
          </mxGeometry>
        </mxCell>
        <mxCell id="YWg9dcSxjDB22ZO5rKcu-88" value="phone [VARCHAR, NULL]" style="shape=partialRectangle;connectable=0;fillColor=none;top=0;left=0;bottom=0;right=0;align=left;spacingLeft=6;overflow=hidden;whiteSpace=wrap;html=1;" parent="YWg9dcSxjDB22ZO5rKcu-86" vertex="1">
          <mxGeometry x="30" width="150" height="40" as="geometry">
            <mxRectangle width="150" height="40" as="alternateBounds" />
          </mxGeometry>
        </mxCell>
        <mxCell id="YWg9dcSxjDB22ZO5rKcu-89" value="" style="shape=tableRow;horizontal=0;startSize=0;swimlaneHead=0;swimlaneBody=0;fillColor=none;collapsible=0;dropTarget=0;points=[[0,0.5],[1,0.5]];portConstraint=eastwest;top=0;left=0;right=0;bottom=0;" parent="YWg9dcSxjDB22ZO5rKcu-1" vertex="1">
          <mxGeometry y="320" width="180" height="40" as="geometry" />
        </mxCell>
        <mxCell id="YWg9dcSxjDB22ZO5rKcu-90" value="" style="shape=partialRectangle;connectable=0;fillColor=none;top=0;left=0;bottom=0;right=0;editable=1;overflow=hidden;whiteSpace=wrap;html=1;" parent="YWg9dcSxjDB22ZO5rKcu-89" vertex="1">
          <mxGeometry width="30" height="40" as="geometry">
            <mxRectangle width="30" height="40" as="alternateBounds" />
          </mxGeometry>
        </mxCell>
        <mxCell id="YWg9dcSxjDB22ZO5rKcu-91" value="profile_url [VARCHAR; NOT NULL; UNIQUE]" style="shape=partialRectangle;connectable=0;fillColor=none;top=0;left=0;bottom=0;right=0;align=left;spacingLeft=6;overflow=hidden;whiteSpace=wrap;html=1;" parent="YWg9dcSxjDB22ZO5rKcu-89" vertex="1">
          <mxGeometry x="30" width="150" height="40" as="geometry">
            <mxRectangle width="150" height="40" as="alternateBounds" />
          </mxGeometry>
        </mxCell>
        <mxCell id="YWg9dcSxjDB22ZO5rKcu-92" value="" style="shape=tableRow;horizontal=0;startSize=0;swimlaneHead=0;swimlaneBody=0;fillColor=none;collapsible=0;dropTarget=0;points=[[0,0.5],[1,0.5]];portConstraint=eastwest;top=0;left=0;right=0;bottom=0;" parent="YWg9dcSxjDB22ZO5rKcu-1" vertex="1">
          <mxGeometry y="360" width="180" height="40" as="geometry" />
        </mxCell>
        <mxCell id="YWg9dcSxjDB22ZO5rKcu-93" value="" style="shape=partialRectangle;connectable=0;fillColor=none;top=0;left=0;bottom=0;right=0;editable=1;overflow=hidden;whiteSpace=wrap;html=1;" parent="YWg9dcSxjDB22ZO5rKcu-92" vertex="1">
          <mxGeometry width="30" height="40" as="geometry">
            <mxRectangle width="30" height="40" as="alternateBounds" />
          </mxGeometry>
        </mxCell>
        <mxCell id="YWg9dcSxjDB22ZO5rKcu-94" value="webpage [VARCHAR, NULL]" style="shape=partialRectangle;connectable=0;fillColor=none;top=0;left=0;bottom=0;right=0;align=left;spacingLeft=6;overflow=hidden;whiteSpace=wrap;html=1;" parent="YWg9dcSxjDB22ZO5rKcu-92" vertex="1">
          <mxGeometry x="30" width="150" height="40" as="geometry">
            <mxRectangle width="150" height="40" as="alternateBounds" />
          </mxGeometry>
        </mxCell>
        <mxCell id="Rsi0PBeb2BQFO4qAarfA-32" value="" style="shape=tableRow;horizontal=0;startSize=0;swimlaneHead=0;swimlaneBody=0;fillColor=none;collapsible=0;dropTarget=0;points=[[0,0.5],[1,0.5]];portConstraint=eastwest;top=0;left=0;right=0;bottom=0;" vertex="1" parent="YWg9dcSxjDB22ZO5rKcu-1">
          <mxGeometry y="400" width="180" height="40" as="geometry" />
        </mxCell>
        <mxCell id="Rsi0PBeb2BQFO4qAarfA-33" value="" style="shape=partialRectangle;connectable=0;fillColor=none;top=0;left=0;bottom=0;right=0;editable=1;overflow=hidden;whiteSpace=wrap;html=1;" vertex="1" parent="Rsi0PBeb2BQFO4qAarfA-32">
          <mxGeometry width="30" height="40" as="geometry">
            <mxRectangle width="30" height="40" as="alternateBounds" />
          </mxGeometry>
        </mxCell>
        <mxCell id="Rsi0PBeb2BQFO4qAarfA-34" value="registration_date [DATETIME; NOT NULL]" style="shape=partialRectangle;connectable=0;fillColor=none;top=0;left=0;bottom=0;right=0;align=left;spacingLeft=6;overflow=hidden;whiteSpace=wrap;html=1;" vertex="1" parent="Rsi0PBeb2BQFO4qAarfA-32">
          <mxGeometry x="30" width="150" height="40" as="geometry">
            <mxRectangle width="150" height="40" as="alternateBounds" />
          </mxGeometry>
        </mxCell>
        <mxCell id="YWg9dcSxjDB22ZO5rKcu-14" value="posts" style="shape=table;startSize=30;container=1;collapsible=1;childLayout=tableLayout;fixedRows=1;rowLines=0;fontStyle=1;align=center;resizeLast=1;html=1;" parent="1" vertex="1">
          <mxGeometry x="570" y="80" width="180" height="230" as="geometry" />
        </mxCell>
        <mxCell id="YWg9dcSxjDB22ZO5rKcu-15" value="" style="shape=tableRow;horizontal=0;startSize=0;swimlaneHead=0;swimlaneBody=0;fillColor=none;collapsible=0;dropTarget=0;points=[[0,0.5],[1,0.5]];portConstraint=eastwest;top=0;left=0;right=0;bottom=1;" parent="YWg9dcSxjDB22ZO5rKcu-14" vertex="1">
          <mxGeometry y="30" width="180" height="50" as="geometry" />
        </mxCell>
        <mxCell id="YWg9dcSxjDB22ZO5rKcu-16" value="PK" style="shape=partialRectangle;connectable=0;fillColor=none;top=0;left=0;bottom=0;right=0;fontStyle=1;overflow=hidden;whiteSpace=wrap;html=1;" parent="YWg9dcSxjDB22ZO5rKcu-15" vertex="1">
          <mxGeometry width="30" height="50" as="geometry">
            <mxRectangle width="30" height="50" as="alternateBounds" />
          </mxGeometry>
        </mxCell>
        <mxCell id="YWg9dcSxjDB22ZO5rKcu-17" value="UniqueID [INT UNSIGNED; AUTO_INCREMENT]" style="shape=partialRectangle;connectable=0;fillColor=none;top=0;left=0;bottom=0;right=0;align=left;spacingLeft=6;fontStyle=5;overflow=hidden;whiteSpace=wrap;html=1;" parent="YWg9dcSxjDB22ZO5rKcu-15" vertex="1">
          <mxGeometry x="30" width="150" height="50" as="geometry">
            <mxRectangle width="150" height="50" as="alternateBounds" />
          </mxGeometry>
        </mxCell>
        <mxCell id="YWg9dcSxjDB22ZO5rKcu-18" value="" style="shape=tableRow;horizontal=0;startSize=0;swimlaneHead=0;swimlaneBody=0;fillColor=none;collapsible=0;dropTarget=0;points=[[0,0.5],[1,0.5]];portConstraint=eastwest;top=0;left=0;right=0;bottom=0;" parent="YWg9dcSxjDB22ZO5rKcu-14" vertex="1">
          <mxGeometry y="80" width="180" height="30" as="geometry" />
        </mxCell>
        <mxCell id="YWg9dcSxjDB22ZO5rKcu-19" value="FK" style="shape=partialRectangle;connectable=0;fillColor=none;top=0;left=0;bottom=0;right=0;editable=1;overflow=hidden;whiteSpace=wrap;html=1;" parent="YWg9dcSxjDB22ZO5rKcu-18" vertex="1">
          <mxGeometry width="30" height="30" as="geometry">
            <mxRectangle width="30" height="30" as="alternateBounds" />
          </mxGeometry>
        </mxCell>
        <mxCell id="YWg9dcSxjDB22ZO5rKcu-20" value="user_id" style="shape=partialRectangle;connectable=0;fillColor=none;top=0;left=0;bottom=0;right=0;align=left;spacingLeft=6;overflow=hidden;whiteSpace=wrap;html=1;" parent="YWg9dcSxjDB22ZO5rKcu-18" vertex="1">
          <mxGeometry x="30" width="150" height="30" as="geometry">
            <mxRectangle width="150" height="30" as="alternateBounds" />
          </mxGeometry>
        </mxCell>
        <mxCell id="YWg9dcSxjDB22ZO5rKcu-21" value="" style="shape=tableRow;horizontal=0;startSize=0;swimlaneHead=0;swimlaneBody=0;fillColor=none;collapsible=0;dropTarget=0;points=[[0,0.5],[1,0.5]];portConstraint=eastwest;top=0;left=0;right=0;bottom=0;" parent="YWg9dcSxjDB22ZO5rKcu-14" vertex="1">
          <mxGeometry y="110" width="180" height="30" as="geometry" />
        </mxCell>
        <mxCell id="YWg9dcSxjDB22ZO5rKcu-22" value="" style="shape=partialRectangle;connectable=0;fillColor=none;top=0;left=0;bottom=0;right=0;editable=1;overflow=hidden;whiteSpace=wrap;html=1;" parent="YWg9dcSxjDB22ZO5rKcu-21" vertex="1">
          <mxGeometry width="30" height="30" as="geometry">
            <mxRectangle width="30" height="30" as="alternateBounds" />
          </mxGeometry>
        </mxCell>
        <mxCell id="YWg9dcSxjDB22ZO5rKcu-23" value="post_text [TEXT, NOT&amp;nbsp; NULL]" style="shape=partialRectangle;connectable=0;fillColor=none;top=0;left=0;bottom=0;right=0;align=left;spacingLeft=6;overflow=hidden;whiteSpace=wrap;html=1;" parent="YWg9dcSxjDB22ZO5rKcu-21" vertex="1">
          <mxGeometry x="30" width="150" height="30" as="geometry">
            <mxRectangle width="150" height="30" as="alternateBounds" />
          </mxGeometry>
        </mxCell>
        <mxCell id="Rsi0PBeb2BQFO4qAarfA-20" value="" style="shape=tableRow;horizontal=0;startSize=0;swimlaneHead=0;swimlaneBody=0;fillColor=none;collapsible=0;dropTarget=0;points=[[0,0.5],[1,0.5]];portConstraint=eastwest;top=0;left=0;right=0;bottom=0;" vertex="1" parent="YWg9dcSxjDB22ZO5rKcu-14">
          <mxGeometry y="140" width="180" height="30" as="geometry" />
        </mxCell>
        <mxCell id="Rsi0PBeb2BQFO4qAarfA-21" value="FK" style="shape=partialRectangle;connectable=0;fillColor=none;top=0;left=0;bottom=0;right=0;editable=1;overflow=hidden;whiteSpace=wrap;html=1;" vertex="1" parent="Rsi0PBeb2BQFO4qAarfA-20">
          <mxGeometry width="30" height="30" as="geometry">
            <mxRectangle width="30" height="30" as="alternateBounds" />
          </mxGeometry>
        </mxCell>
        <mxCell id="Rsi0PBeb2BQFO4qAarfA-22" value="tag_id" style="shape=partialRectangle;connectable=0;fillColor=none;top=0;left=0;bottom=0;right=0;align=left;spacingLeft=6;overflow=hidden;whiteSpace=wrap;html=1;" vertex="1" parent="Rsi0PBeb2BQFO4qAarfA-20">
          <mxGeometry x="30" width="150" height="30" as="geometry">
            <mxRectangle width="150" height="30" as="alternateBounds" />
          </mxGeometry>
        </mxCell>
        <mxCell id="Rsi0PBeb2BQFO4qAarfA-26" value="" style="shape=tableRow;horizontal=0;startSize=0;swimlaneHead=0;swimlaneBody=0;fillColor=none;collapsible=0;dropTarget=0;points=[[0,0.5],[1,0.5]];portConstraint=eastwest;top=0;left=0;right=0;bottom=0;" vertex="1" parent="YWg9dcSxjDB22ZO5rKcu-14">
          <mxGeometry y="170" width="180" height="30" as="geometry" />
        </mxCell>
        <mxCell id="Rsi0PBeb2BQFO4qAarfA-27" value="" style="shape=partialRectangle;connectable=0;fillColor=none;top=0;left=0;bottom=0;right=0;editable=1;overflow=hidden;whiteSpace=wrap;html=1;" vertex="1" parent="Rsi0PBeb2BQFO4qAarfA-26">
          <mxGeometry width="30" height="30" as="geometry">
            <mxRectangle width="30" height="30" as="alternateBounds" />
          </mxGeometry>
        </mxCell>
        <mxCell id="Rsi0PBeb2BQFO4qAarfA-28" value="upload_date [DATETIME; NOT NULL]" style="shape=partialRectangle;connectable=0;fillColor=none;top=0;left=0;bottom=0;right=0;align=left;spacingLeft=6;overflow=hidden;whiteSpace=wrap;html=1;" vertex="1" parent="Rsi0PBeb2BQFO4qAarfA-26">
          <mxGeometry x="30" width="150" height="30" as="geometry">
            <mxRectangle width="150" height="30" as="alternateBounds" />
          </mxGeometry>
        </mxCell>
        <mxCell id="Rsi0PBeb2BQFO4qAarfA-29" value="" style="shape=tableRow;horizontal=0;startSize=0;swimlaneHead=0;swimlaneBody=0;fillColor=none;collapsible=0;dropTarget=0;points=[[0,0.5],[1,0.5]];portConstraint=eastwest;top=0;left=0;right=0;bottom=0;" vertex="1" parent="YWg9dcSxjDB22ZO5rKcu-14">
          <mxGeometry y="200" width="180" height="30" as="geometry" />
        </mxCell>
        <mxCell id="Rsi0PBeb2BQFO4qAarfA-30" value="" style="shape=partialRectangle;connectable=0;fillColor=none;top=0;left=0;bottom=0;right=0;editable=1;overflow=hidden;whiteSpace=wrap;html=1;" vertex="1" parent="Rsi0PBeb2BQFO4qAarfA-29">
          <mxGeometry width="30" height="30" as="geometry">
            <mxRectangle width="30" height="30" as="alternateBounds" />
          </mxGeometry>
        </mxCell>
        <mxCell id="Rsi0PBeb2BQFO4qAarfA-31" value="delete_date [DATETIME; NULL]" style="shape=partialRectangle;connectable=0;fillColor=none;top=0;left=0;bottom=0;right=0;align=left;spacingLeft=6;overflow=hidden;whiteSpace=wrap;html=1;" vertex="1" parent="Rsi0PBeb2BQFO4qAarfA-29">
          <mxGeometry x="30" width="150" height="30" as="geometry">
            <mxRectangle width="150" height="30" as="alternateBounds" />
          </mxGeometry>
        </mxCell>
        <mxCell id="YWg9dcSxjDB22ZO5rKcu-27" value="media" style="shape=table;startSize=30;container=1;collapsible=1;childLayout=tableLayout;fixedRows=1;rowLines=0;fontStyle=1;align=center;resizeLast=1;html=1;" parent="1" vertex="1">
          <mxGeometry x="1090" y="80" width="180" height="200" as="geometry" />
        </mxCell>
        <mxCell id="YWg9dcSxjDB22ZO5rKcu-28" value="" style="shape=tableRow;horizontal=0;startSize=0;swimlaneHead=0;swimlaneBody=0;fillColor=none;collapsible=0;dropTarget=0;points=[[0,0.5],[1,0.5]];portConstraint=eastwest;top=0;left=0;right=0;bottom=1;" parent="YWg9dcSxjDB22ZO5rKcu-27" vertex="1">
          <mxGeometry y="30" width="180" height="50" as="geometry" />
        </mxCell>
        <mxCell id="YWg9dcSxjDB22ZO5rKcu-29" value="PK" style="shape=partialRectangle;connectable=0;fillColor=none;top=0;left=0;bottom=0;right=0;fontStyle=1;overflow=hidden;whiteSpace=wrap;html=1;" parent="YWg9dcSxjDB22ZO5rKcu-28" vertex="1">
          <mxGeometry width="30" height="50" as="geometry">
            <mxRectangle width="30" height="50" as="alternateBounds" />
          </mxGeometry>
        </mxCell>
        <mxCell id="YWg9dcSxjDB22ZO5rKcu-30" value="UniqueID [INT UNSIGNED; AUTO_INCREMENT]" style="shape=partialRectangle;connectable=0;fillColor=none;top=0;left=0;bottom=0;right=0;align=left;spacingLeft=6;fontStyle=5;overflow=hidden;whiteSpace=wrap;html=1;" parent="YWg9dcSxjDB22ZO5rKcu-28" vertex="1">
          <mxGeometry x="30" width="150" height="50" as="geometry">
            <mxRectangle width="150" height="50" as="alternateBounds" />
          </mxGeometry>
        </mxCell>
        <mxCell id="YWg9dcSxjDB22ZO5rKcu-31" value="" style="shape=tableRow;horizontal=0;startSize=0;swimlaneHead=0;swimlaneBody=0;fillColor=none;collapsible=0;dropTarget=0;points=[[0,0.5],[1,0.5]];portConstraint=eastwest;top=0;left=0;right=0;bottom=0;" parent="YWg9dcSxjDB22ZO5rKcu-27" vertex="1">
          <mxGeometry y="80" width="180" height="30" as="geometry" />
        </mxCell>
        <mxCell id="YWg9dcSxjDB22ZO5rKcu-32" value="" style="shape=partialRectangle;connectable=0;fillColor=none;top=0;left=0;bottom=0;right=0;editable=1;overflow=hidden;whiteSpace=wrap;html=1;" parent="YWg9dcSxjDB22ZO5rKcu-31" vertex="1">
          <mxGeometry width="30" height="30" as="geometry">
            <mxRectangle width="30" height="30" as="alternateBounds" />
          </mxGeometry>
        </mxCell>
        <mxCell id="YWg9dcSxjDB22ZO5rKcu-33" value="medium_type [VARCHAR; NOT NULL]" style="shape=partialRectangle;connectable=0;fillColor=none;top=0;left=0;bottom=0;right=0;align=left;spacingLeft=6;overflow=hidden;whiteSpace=wrap;html=1;" parent="YWg9dcSxjDB22ZO5rKcu-31" vertex="1">
          <mxGeometry x="30" width="150" height="30" as="geometry">
            <mxRectangle width="150" height="30" as="alternateBounds" />
          </mxGeometry>
        </mxCell>
        <mxCell id="YWg9dcSxjDB22ZO5rKcu-34" value="" style="shape=tableRow;horizontal=0;startSize=0;swimlaneHead=0;swimlaneBody=0;fillColor=none;collapsible=0;dropTarget=0;points=[[0,0.5],[1,0.5]];portConstraint=eastwest;top=0;left=0;right=0;bottom=0;" parent="YWg9dcSxjDB22ZO5rKcu-27" vertex="1">
          <mxGeometry y="110" width="180" height="30" as="geometry" />
        </mxCell>
        <mxCell id="YWg9dcSxjDB22ZO5rKcu-35" value="" style="shape=partialRectangle;connectable=0;fillColor=none;top=0;left=0;bottom=0;right=0;editable=1;overflow=hidden;whiteSpace=wrap;html=1;" parent="YWg9dcSxjDB22ZO5rKcu-34" vertex="1">
          <mxGeometry width="30" height="30" as="geometry">
            <mxRectangle width="30" height="30" as="alternateBounds" />
          </mxGeometry>
        </mxCell>
        <mxCell id="YWg9dcSxjDB22ZO5rKcu-36" value="medium_url [VARCHAR, NOT NULL]" style="shape=partialRectangle;connectable=0;fillColor=none;top=0;left=0;bottom=0;right=0;align=left;spacingLeft=6;overflow=hidden;whiteSpace=wrap;html=1;" parent="YWg9dcSxjDB22ZO5rKcu-34" vertex="1">
          <mxGeometry x="30" width="150" height="30" as="geometry">
            <mxRectangle width="150" height="30" as="alternateBounds" />
          </mxGeometry>
        </mxCell>
        <mxCell id="YWg9dcSxjDB22ZO5rKcu-37" value="" style="shape=tableRow;horizontal=0;startSize=0;swimlaneHead=0;swimlaneBody=0;fillColor=none;collapsible=0;dropTarget=0;points=[[0,0.5],[1,0.5]];portConstraint=eastwest;top=0;left=0;right=0;bottom=0;" parent="YWg9dcSxjDB22ZO5rKcu-27" vertex="1">
          <mxGeometry y="140" width="180" height="30" as="geometry" />
        </mxCell>
        <mxCell id="YWg9dcSxjDB22ZO5rKcu-38" value="FK" style="shape=partialRectangle;connectable=0;fillColor=none;top=0;left=0;bottom=0;right=0;editable=1;overflow=hidden;whiteSpace=wrap;html=1;" parent="YWg9dcSxjDB22ZO5rKcu-37" vertex="1">
          <mxGeometry width="30" height="30" as="geometry">
            <mxRectangle width="30" height="30" as="alternateBounds" />
          </mxGeometry>
        </mxCell>
        <mxCell id="YWg9dcSxjDB22ZO5rKcu-39" value="post_id" style="shape=partialRectangle;connectable=0;fillColor=none;top=0;left=0;bottom=0;right=0;align=left;spacingLeft=6;overflow=hidden;whiteSpace=wrap;html=1;" parent="YWg9dcSxjDB22ZO5rKcu-37" vertex="1">
          <mxGeometry x="30" width="150" height="30" as="geometry">
            <mxRectangle width="150" height="30" as="alternateBounds" />
          </mxGeometry>
        </mxCell>
        <mxCell id="YWg9dcSxjDB22ZO5rKcu-95" value="" style="shape=tableRow;horizontal=0;startSize=0;swimlaneHead=0;swimlaneBody=0;fillColor=none;collapsible=0;dropTarget=0;points=[[0,0.5],[1,0.5]];portConstraint=eastwest;top=0;left=0;right=0;bottom=0;" parent="YWg9dcSxjDB22ZO5rKcu-27" vertex="1">
          <mxGeometry y="170" width="180" height="30" as="geometry" />
        </mxCell>
        <mxCell id="YWg9dcSxjDB22ZO5rKcu-96" value="" style="shape=partialRectangle;connectable=0;fillColor=none;top=0;left=0;bottom=0;right=0;editable=1;overflow=hidden;whiteSpace=wrap;html=1;" parent="YWg9dcSxjDB22ZO5rKcu-95" vertex="1">
          <mxGeometry width="30" height="30" as="geometry">
            <mxRectangle width="30" height="30" as="alternateBounds" />
          </mxGeometry>
        </mxCell>
        <mxCell id="YWg9dcSxjDB22ZO5rKcu-97" value="upload_date [DATETIME; NOT NULL]" style="shape=partialRectangle;connectable=0;fillColor=none;top=0;left=0;bottom=0;right=0;align=left;spacingLeft=6;overflow=hidden;whiteSpace=wrap;html=1;" parent="YWg9dcSxjDB22ZO5rKcu-95" vertex="1">
          <mxGeometry x="30" width="150" height="30" as="geometry">
            <mxRectangle width="150" height="30" as="alternateBounds" />
          </mxGeometry>
        </mxCell>
        <mxCell id="YWg9dcSxjDB22ZO5rKcu-40" value="&lt;div&gt;likes&lt;/div&gt;" style="shape=table;startSize=30;container=1;collapsible=1;childLayout=tableLayout;fixedRows=1;rowLines=0;fontStyle=1;align=center;resizeLast=1;html=1;" parent="1" vertex="1">
          <mxGeometry x="215" y="-291" width="180" height="170" as="geometry" />
        </mxCell>
        <mxCell id="YWg9dcSxjDB22ZO5rKcu-41" value="" style="shape=tableRow;horizontal=0;startSize=0;swimlaneHead=0;swimlaneBody=0;fillColor=none;collapsible=0;dropTarget=0;points=[[0,0.5],[1,0.5]];portConstraint=eastwest;top=0;left=0;right=0;bottom=1;" parent="YWg9dcSxjDB22ZO5rKcu-40" vertex="1">
          <mxGeometry y="30" width="180" height="50" as="geometry" />
        </mxCell>
        <mxCell id="YWg9dcSxjDB22ZO5rKcu-42" value="PK" style="shape=partialRectangle;connectable=0;fillColor=none;top=0;left=0;bottom=0;right=0;fontStyle=1;overflow=hidden;whiteSpace=wrap;html=1;" parent="YWg9dcSxjDB22ZO5rKcu-41" vertex="1">
          <mxGeometry width="30" height="50" as="geometry">
            <mxRectangle width="30" height="50" as="alternateBounds" />
          </mxGeometry>
        </mxCell>
        <mxCell id="YWg9dcSxjDB22ZO5rKcu-43" value="UniqueID [INT UNSIGNED; AUTO_INCREMENT]" style="shape=partialRectangle;connectable=0;fillColor=none;top=0;left=0;bottom=0;right=0;align=left;spacingLeft=6;fontStyle=5;overflow=hidden;whiteSpace=wrap;html=1;" parent="YWg9dcSxjDB22ZO5rKcu-41" vertex="1">
          <mxGeometry x="30" width="150" height="50" as="geometry">
            <mxRectangle width="150" height="50" as="alternateBounds" />
          </mxGeometry>
        </mxCell>
        <mxCell id="YWg9dcSxjDB22ZO5rKcu-44" value="" style="shape=tableRow;horizontal=0;startSize=0;swimlaneHead=0;swimlaneBody=0;fillColor=none;collapsible=0;dropTarget=0;points=[[0,0.5],[1,0.5]];portConstraint=eastwest;top=0;left=0;right=0;bottom=0;" parent="YWg9dcSxjDB22ZO5rKcu-40" vertex="1">
          <mxGeometry y="80" width="180" height="30" as="geometry" />
        </mxCell>
        <mxCell id="YWg9dcSxjDB22ZO5rKcu-45" value="FK" style="shape=partialRectangle;connectable=0;fillColor=none;top=0;left=0;bottom=0;right=0;editable=1;overflow=hidden;whiteSpace=wrap;html=1;" parent="YWg9dcSxjDB22ZO5rKcu-44" vertex="1">
          <mxGeometry width="30" height="30" as="geometry">
            <mxRectangle width="30" height="30" as="alternateBounds" />
          </mxGeometry>
        </mxCell>
        <mxCell id="YWg9dcSxjDB22ZO5rKcu-46" value="user_id" style="shape=partialRectangle;connectable=0;fillColor=none;top=0;left=0;bottom=0;right=0;align=left;spacingLeft=6;overflow=hidden;whiteSpace=wrap;html=1;" parent="YWg9dcSxjDB22ZO5rKcu-44" vertex="1">
          <mxGeometry x="30" width="150" height="30" as="geometry">
            <mxRectangle width="150" height="30" as="alternateBounds" />
          </mxGeometry>
        </mxCell>
        <mxCell id="YWg9dcSxjDB22ZO5rKcu-47" value="" style="shape=tableRow;horizontal=0;startSize=0;swimlaneHead=0;swimlaneBody=0;fillColor=none;collapsible=0;dropTarget=0;points=[[0,0.5],[1,0.5]];portConstraint=eastwest;top=0;left=0;right=0;bottom=0;" parent="YWg9dcSxjDB22ZO5rKcu-40" vertex="1">
          <mxGeometry y="110" width="180" height="30" as="geometry" />
        </mxCell>
        <mxCell id="YWg9dcSxjDB22ZO5rKcu-48" value="FK" style="shape=partialRectangle;connectable=0;fillColor=none;top=0;left=0;bottom=0;right=0;editable=1;overflow=hidden;whiteSpace=wrap;html=1;" parent="YWg9dcSxjDB22ZO5rKcu-47" vertex="1">
          <mxGeometry width="30" height="30" as="geometry">
            <mxRectangle width="30" height="30" as="alternateBounds" />
          </mxGeometry>
        </mxCell>
        <mxCell id="YWg9dcSxjDB22ZO5rKcu-49" value="&lt;span style=&quot;white-space: pre;&quot;&gt;post_id&#x9;&lt;/span&gt;" style="shape=partialRectangle;connectable=0;fillColor=none;top=0;left=0;bottom=0;right=0;align=left;spacingLeft=6;overflow=hidden;whiteSpace=wrap;html=1;" parent="YWg9dcSxjDB22ZO5rKcu-47" vertex="1">
          <mxGeometry x="30" width="150" height="30" as="geometry">
            <mxRectangle width="150" height="30" as="alternateBounds" />
          </mxGeometry>
        </mxCell>
        <mxCell id="YWg9dcSxjDB22ZO5rKcu-50" value="" style="shape=tableRow;horizontal=0;startSize=0;swimlaneHead=0;swimlaneBody=0;fillColor=none;collapsible=0;dropTarget=0;points=[[0,0.5],[1,0.5]];portConstraint=eastwest;top=0;left=0;right=0;bottom=0;" parent="YWg9dcSxjDB22ZO5rKcu-40" vertex="1">
          <mxGeometry y="140" width="180" height="30" as="geometry" />
        </mxCell>
        <mxCell id="YWg9dcSxjDB22ZO5rKcu-51" value="" style="shape=partialRectangle;connectable=0;fillColor=none;top=0;left=0;bottom=0;right=0;editable=1;overflow=hidden;whiteSpace=wrap;html=1;" parent="YWg9dcSxjDB22ZO5rKcu-50" vertex="1">
          <mxGeometry width="30" height="30" as="geometry">
            <mxRectangle width="30" height="30" as="alternateBounds" />
          </mxGeometry>
        </mxCell>
        <mxCell id="YWg9dcSxjDB22ZO5rKcu-52" value="date [DATETIME; NOT NULL]" style="shape=partialRectangle;connectable=0;fillColor=none;top=0;left=0;bottom=0;right=0;align=left;spacingLeft=6;overflow=hidden;whiteSpace=wrap;html=1;" parent="YWg9dcSxjDB22ZO5rKcu-50" vertex="1">
          <mxGeometry x="30" width="150" height="30" as="geometry">
            <mxRectangle width="150" height="30" as="alternateBounds" />
          </mxGeometry>
        </mxCell>
        <mxCell id="YWg9dcSxjDB22ZO5rKcu-53" value="&lt;div&gt;comments&lt;/div&gt;" style="shape=table;startSize=30;container=1;collapsible=1;childLayout=tableLayout;fixedRows=1;rowLines=0;fontStyle=1;align=center;resizeLast=1;html=1;" parent="1" vertex="1">
          <mxGeometry x="570" y="500" width="180" height="200" as="geometry" />
        </mxCell>
        <mxCell id="YWg9dcSxjDB22ZO5rKcu-54" value="" style="shape=tableRow;horizontal=0;startSize=0;swimlaneHead=0;swimlaneBody=0;fillColor=none;collapsible=0;dropTarget=0;points=[[0,0.5],[1,0.5]];portConstraint=eastwest;top=0;left=0;right=0;bottom=1;" parent="YWg9dcSxjDB22ZO5rKcu-53" vertex="1">
          <mxGeometry y="30" width="180" height="50" as="geometry" />
        </mxCell>
        <mxCell id="YWg9dcSxjDB22ZO5rKcu-55" value="PK" style="shape=partialRectangle;connectable=0;fillColor=none;top=0;left=0;bottom=0;right=0;fontStyle=1;overflow=hidden;whiteSpace=wrap;html=1;" parent="YWg9dcSxjDB22ZO5rKcu-54" vertex="1">
          <mxGeometry width="30" height="50" as="geometry">
            <mxRectangle width="30" height="50" as="alternateBounds" />
          </mxGeometry>
        </mxCell>
        <mxCell id="YWg9dcSxjDB22ZO5rKcu-56" value="UniqueID [INT UNSIGNED; AUTO_INCREMENT]" style="shape=partialRectangle;connectable=0;fillColor=none;top=0;left=0;bottom=0;right=0;align=left;spacingLeft=6;fontStyle=5;overflow=hidden;whiteSpace=wrap;html=1;" parent="YWg9dcSxjDB22ZO5rKcu-54" vertex="1">
          <mxGeometry x="30" width="150" height="50" as="geometry">
            <mxRectangle width="150" height="50" as="alternateBounds" />
          </mxGeometry>
        </mxCell>
        <mxCell id="YWg9dcSxjDB22ZO5rKcu-57" value="" style="shape=tableRow;horizontal=0;startSize=0;swimlaneHead=0;swimlaneBody=0;fillColor=none;collapsible=0;dropTarget=0;points=[[0,0.5],[1,0.5]];portConstraint=eastwest;top=0;left=0;right=0;bottom=0;" parent="YWg9dcSxjDB22ZO5rKcu-53" vertex="1">
          <mxGeometry y="80" width="180" height="30" as="geometry" />
        </mxCell>
        <mxCell id="YWg9dcSxjDB22ZO5rKcu-58" value="FK" style="shape=partialRectangle;connectable=0;fillColor=none;top=0;left=0;bottom=0;right=0;editable=1;overflow=hidden;whiteSpace=wrap;html=1;" parent="YWg9dcSxjDB22ZO5rKcu-57" vertex="1">
          <mxGeometry width="30" height="30" as="geometry">
            <mxRectangle width="30" height="30" as="alternateBounds" />
          </mxGeometry>
        </mxCell>
        <mxCell id="YWg9dcSxjDB22ZO5rKcu-59" value="user_id" style="shape=partialRectangle;connectable=0;fillColor=none;top=0;left=0;bottom=0;right=0;align=left;spacingLeft=6;overflow=hidden;whiteSpace=wrap;html=1;" parent="YWg9dcSxjDB22ZO5rKcu-57" vertex="1">
          <mxGeometry x="30" width="150" height="30" as="geometry">
            <mxRectangle width="150" height="30" as="alternateBounds" />
          </mxGeometry>
        </mxCell>
        <mxCell id="YWg9dcSxjDB22ZO5rKcu-60" value="" style="shape=tableRow;horizontal=0;startSize=0;swimlaneHead=0;swimlaneBody=0;fillColor=none;collapsible=0;dropTarget=0;points=[[0,0.5],[1,0.5]];portConstraint=eastwest;top=0;left=0;right=0;bottom=0;" parent="YWg9dcSxjDB22ZO5rKcu-53" vertex="1">
          <mxGeometry y="110" width="180" height="30" as="geometry" />
        </mxCell>
        <mxCell id="YWg9dcSxjDB22ZO5rKcu-61" value="FK" style="shape=partialRectangle;connectable=0;fillColor=none;top=0;left=0;bottom=0;right=0;editable=1;overflow=hidden;whiteSpace=wrap;html=1;" parent="YWg9dcSxjDB22ZO5rKcu-60" vertex="1">
          <mxGeometry width="30" height="30" as="geometry">
            <mxRectangle width="30" height="30" as="alternateBounds" />
          </mxGeometry>
        </mxCell>
        <mxCell id="YWg9dcSxjDB22ZO5rKcu-62" value="post_id" style="shape=partialRectangle;connectable=0;fillColor=none;top=0;left=0;bottom=0;right=0;align=left;spacingLeft=6;overflow=hidden;whiteSpace=wrap;html=1;" parent="YWg9dcSxjDB22ZO5rKcu-60" vertex="1">
          <mxGeometry x="30" width="150" height="30" as="geometry">
            <mxRectangle width="150" height="30" as="alternateBounds" />
          </mxGeometry>
        </mxCell>
        <mxCell id="YWg9dcSxjDB22ZO5rKcu-63" value="" style="shape=tableRow;horizontal=0;startSize=0;swimlaneHead=0;swimlaneBody=0;fillColor=none;collapsible=0;dropTarget=0;points=[[0,0.5],[1,0.5]];portConstraint=eastwest;top=0;left=0;right=0;bottom=0;" parent="YWg9dcSxjDB22ZO5rKcu-53" vertex="1">
          <mxGeometry y="140" width="180" height="30" as="geometry" />
        </mxCell>
        <mxCell id="YWg9dcSxjDB22ZO5rKcu-64" value="" style="shape=partialRectangle;connectable=0;fillColor=none;top=0;left=0;bottom=0;right=0;editable=1;overflow=hidden;whiteSpace=wrap;html=1;" parent="YWg9dcSxjDB22ZO5rKcu-63" vertex="1">
          <mxGeometry width="30" height="30" as="geometry">
            <mxRectangle width="30" height="30" as="alternateBounds" />
          </mxGeometry>
        </mxCell>
        <mxCell id="YWg9dcSxjDB22ZO5rKcu-65" value="comment_text [TEXT, NOT NULL]" style="shape=partialRectangle;connectable=0;fillColor=none;top=0;left=0;bottom=0;right=0;align=left;spacingLeft=6;overflow=hidden;whiteSpace=wrap;html=1;" parent="YWg9dcSxjDB22ZO5rKcu-63" vertex="1">
          <mxGeometry x="30" width="150" height="30" as="geometry">
            <mxRectangle width="150" height="30" as="alternateBounds" />
          </mxGeometry>
        </mxCell>
        <mxCell id="Rsi0PBeb2BQFO4qAarfA-23" value="" style="shape=tableRow;horizontal=0;startSize=0;swimlaneHead=0;swimlaneBody=0;fillColor=none;collapsible=0;dropTarget=0;points=[[0,0.5],[1,0.5]];portConstraint=eastwest;top=0;left=0;right=0;bottom=0;" vertex="1" parent="YWg9dcSxjDB22ZO5rKcu-53">
          <mxGeometry y="170" width="180" height="30" as="geometry" />
        </mxCell>
        <mxCell id="Rsi0PBeb2BQFO4qAarfA-24" value="" style="shape=partialRectangle;connectable=0;fillColor=none;top=0;left=0;bottom=0;right=0;editable=1;overflow=hidden;whiteSpace=wrap;html=1;" vertex="1" parent="Rsi0PBeb2BQFO4qAarfA-23">
          <mxGeometry width="30" height="30" as="geometry">
            <mxRectangle width="30" height="30" as="alternateBounds" />
          </mxGeometry>
        </mxCell>
        <mxCell id="Rsi0PBeb2BQFO4qAarfA-25" value="comment_date [DATETIME; NOT NULL]" style="shape=partialRectangle;connectable=0;fillColor=none;top=0;left=0;bottom=0;right=0;align=left;spacingLeft=6;overflow=hidden;whiteSpace=wrap;html=1;" vertex="1" parent="Rsi0PBeb2BQFO4qAarfA-23">
          <mxGeometry x="30" width="150" height="30" as="geometry">
            <mxRectangle width="150" height="30" as="alternateBounds" />
          </mxGeometry>
        </mxCell>
        <mxCell id="YWg9dcSxjDB22ZO5rKcu-66" value="&lt;div&gt;tags&lt;/div&gt;" style="shape=table;startSize=30;container=1;collapsible=1;childLayout=tableLayout;fixedRows=1;rowLines=0;fontStyle=1;align=center;resizeLast=1;html=1;" parent="1" vertex="1">
          <mxGeometry x="570" y="-291" width="180" height="110" as="geometry" />
        </mxCell>
        <mxCell id="YWg9dcSxjDB22ZO5rKcu-67" value="" style="shape=tableRow;horizontal=0;startSize=0;swimlaneHead=0;swimlaneBody=0;fillColor=none;collapsible=0;dropTarget=0;points=[[0,0.5],[1,0.5]];portConstraint=eastwest;top=0;left=0;right=0;bottom=1;" parent="YWg9dcSxjDB22ZO5rKcu-66" vertex="1">
          <mxGeometry y="30" width="180" height="50" as="geometry" />
        </mxCell>
        <mxCell id="YWg9dcSxjDB22ZO5rKcu-68" value="PK" style="shape=partialRectangle;connectable=0;fillColor=none;top=0;left=0;bottom=0;right=0;fontStyle=1;overflow=hidden;whiteSpace=wrap;html=1;" parent="YWg9dcSxjDB22ZO5rKcu-67" vertex="1">
          <mxGeometry width="30" height="50" as="geometry">
            <mxRectangle width="30" height="50" as="alternateBounds" />
          </mxGeometry>
        </mxCell>
        <mxCell id="YWg9dcSxjDB22ZO5rKcu-69" value="UniqueID [INT UNSIGNED; AUTO_INCREMENT]" style="shape=partialRectangle;connectable=0;fillColor=none;top=0;left=0;bottom=0;right=0;align=left;spacingLeft=6;fontStyle=5;overflow=hidden;whiteSpace=wrap;html=1;" parent="YWg9dcSxjDB22ZO5rKcu-67" vertex="1">
          <mxGeometry x="30" width="150" height="50" as="geometry">
            <mxRectangle width="150" height="50" as="alternateBounds" />
          </mxGeometry>
        </mxCell>
        <mxCell id="YWg9dcSxjDB22ZO5rKcu-70" value="" style="shape=tableRow;horizontal=0;startSize=0;swimlaneHead=0;swimlaneBody=0;fillColor=none;collapsible=0;dropTarget=0;points=[[0,0.5],[1,0.5]];portConstraint=eastwest;top=0;left=0;right=0;bottom=0;" parent="YWg9dcSxjDB22ZO5rKcu-66" vertex="1">
          <mxGeometry y="80" width="180" height="30" as="geometry" />
        </mxCell>
        <mxCell id="YWg9dcSxjDB22ZO5rKcu-71" value="" style="shape=partialRectangle;connectable=0;fillColor=none;top=0;left=0;bottom=0;right=0;editable=1;overflow=hidden;whiteSpace=wrap;html=1;" parent="YWg9dcSxjDB22ZO5rKcu-70" vertex="1">
          <mxGeometry width="30" height="30" as="geometry">
            <mxRectangle width="30" height="30" as="alternateBounds" />
          </mxGeometry>
        </mxCell>
        <mxCell id="YWg9dcSxjDB22ZO5rKcu-72" value="tag_name" style="shape=partialRectangle;connectable=0;fillColor=none;top=0;left=0;bottom=0;right=0;align=left;spacingLeft=6;overflow=hidden;whiteSpace=wrap;html=1;" parent="YWg9dcSxjDB22ZO5rKcu-70" vertex="1">
          <mxGeometry x="30" width="150" height="30" as="geometry">
            <mxRectangle width="150" height="30" as="alternateBounds" />
          </mxGeometry>
        </mxCell>
        <mxCell id="Rsi0PBeb2BQFO4qAarfA-3" style="edgeStyle=orthogonalEdgeStyle;shape=connector;rounded=0;orthogonalLoop=1;jettySize=auto;html=1;exitX=1;exitY=0.5;exitDx=0;exitDy=0;entryX=0;entryY=0.5;entryDx=0;entryDy=0;strokeColor=default;align=center;verticalAlign=middle;fontFamily=Helvetica;fontSize=11;fontColor=default;labelBackgroundColor=default;endArrow=none;endFill=0;" edge="1" parent="1" source="Rsi0PBeb2BQFO4qAarfA-1" target="YWg9dcSxjDB22ZO5rKcu-18">
          <mxGeometry relative="1" as="geometry" />
        </mxCell>
        <mxCell id="Rsi0PBeb2BQFO4qAarfA-1" value="Relationship" style="shape=rhombus;perimeter=rhombusPerimeter;whiteSpace=wrap;html=1;align=center;" vertex="1" parent="1">
          <mxGeometry x="370" y="145" width="120" height="60" as="geometry" />
        </mxCell>
        <mxCell id="Rsi0PBeb2BQFO4qAarfA-2" style="edgeStyle=orthogonalEdgeStyle;rounded=0;orthogonalLoop=1;jettySize=auto;html=1;exitX=1;exitY=0.5;exitDx=0;exitDy=0;entryX=0;entryY=0.5;entryDx=0;entryDy=0;endArrow=none;endFill=0;" edge="1" parent="1" source="YWg9dcSxjDB22ZO5rKcu-2" target="Rsi0PBeb2BQFO4qAarfA-1">
          <mxGeometry relative="1" as="geometry" />
        </mxCell>
        <mxCell id="Rsi0PBeb2BQFO4qAarfA-6" style="edgeStyle=orthogonalEdgeStyle;shape=connector;rounded=0;orthogonalLoop=1;jettySize=auto;html=1;exitX=1;exitY=0.5;exitDx=0;exitDy=0;entryX=0;entryY=0.5;entryDx=0;entryDy=0;strokeColor=default;align=center;verticalAlign=middle;fontFamily=Helvetica;fontSize=11;fontColor=default;labelBackgroundColor=default;endArrow=none;endFill=0;" edge="1" parent="1" source="Rsi0PBeb2BQFO4qAarfA-4" target="YWg9dcSxjDB22ZO5rKcu-37">
          <mxGeometry relative="1" as="geometry" />
        </mxCell>
        <mxCell id="Rsi0PBeb2BQFO4qAarfA-4" value="Relationship" style="shape=rhombus;perimeter=rhombusPerimeter;whiteSpace=wrap;html=1;align=center;fontFamily=Helvetica;fontSize=11;fontColor=default;labelBackgroundColor=default;" vertex="1" parent="1">
          <mxGeometry x="860" y="145" width="120" height="60" as="geometry" />
        </mxCell>
        <mxCell id="Rsi0PBeb2BQFO4qAarfA-5" style="edgeStyle=orthogonalEdgeStyle;shape=connector;rounded=0;orthogonalLoop=1;jettySize=auto;html=1;exitX=1;exitY=0.5;exitDx=0;exitDy=0;entryX=0;entryY=0.5;entryDx=0;entryDy=0;strokeColor=default;align=center;verticalAlign=middle;fontFamily=Helvetica;fontSize=11;fontColor=default;labelBackgroundColor=default;endArrow=none;endFill=0;" edge="1" parent="1" source="YWg9dcSxjDB22ZO5rKcu-15" target="Rsi0PBeb2BQFO4qAarfA-4">
          <mxGeometry relative="1" as="geometry" />
        </mxCell>
        <mxCell id="Rsi0PBeb2BQFO4qAarfA-12" style="edgeStyle=orthogonalEdgeStyle;shape=connector;rounded=0;orthogonalLoop=1;jettySize=auto;html=1;exitX=1;exitY=0.5;exitDx=0;exitDy=0;strokeColor=default;align=center;verticalAlign=middle;fontFamily=Helvetica;fontSize=11;fontColor=default;labelBackgroundColor=default;endArrow=none;endFill=0;" edge="1" parent="1" source="Rsi0PBeb2BQFO4qAarfA-9" target="YWg9dcSxjDB22ZO5rKcu-57">
          <mxGeometry relative="1" as="geometry" />
        </mxCell>
        <mxCell id="Rsi0PBeb2BQFO4qAarfA-9" value="Relationship" style="shape=rhombus;perimeter=rhombusPerimeter;whiteSpace=wrap;html=1;align=center;" vertex="1" parent="1">
          <mxGeometry x="370" y="550" width="120" height="60" as="geometry" />
        </mxCell>
        <mxCell id="Rsi0PBeb2BQFO4qAarfA-13" style="edgeStyle=orthogonalEdgeStyle;shape=connector;rounded=0;orthogonalLoop=1;jettySize=auto;html=1;exitX=0;exitY=0.5;exitDx=0;exitDy=0;entryX=0;entryY=0.05;entryDx=0;entryDy=0;entryPerimeter=0;strokeColor=default;align=center;verticalAlign=middle;fontFamily=Helvetica;fontSize=11;fontColor=default;labelBackgroundColor=default;endArrow=none;endFill=0;" edge="1" parent="1" source="Rsi0PBeb2BQFO4qAarfA-9" target="YWg9dcSxjDB22ZO5rKcu-1">
          <mxGeometry relative="1" as="geometry">
            <Array as="points">
              <mxPoint x="80" y="580" />
              <mxPoint x="80" y="102" />
            </Array>
          </mxGeometry>
        </mxCell>
        <mxCell id="Rsi0PBeb2BQFO4qAarfA-15" style="edgeStyle=orthogonalEdgeStyle;shape=connector;rounded=0;orthogonalLoop=1;jettySize=auto;html=1;exitX=0.5;exitY=0;exitDx=0;exitDy=0;strokeColor=default;align=center;verticalAlign=middle;fontFamily=Helvetica;fontSize=11;fontColor=default;labelBackgroundColor=default;endArrow=none;endFill=0;" edge="1" parent="1" source="Rsi0PBeb2BQFO4qAarfA-14" target="YWg9dcSxjDB22ZO5rKcu-14">
          <mxGeometry relative="1" as="geometry" />
        </mxCell>
        <mxCell id="Rsi0PBeb2BQFO4qAarfA-16" style="edgeStyle=orthogonalEdgeStyle;shape=connector;rounded=0;orthogonalLoop=1;jettySize=auto;html=1;exitX=1;exitY=0.5;exitDx=0;exitDy=0;entryX=1;entryY=0.75;entryDx=0;entryDy=0;strokeColor=default;align=center;verticalAlign=middle;fontFamily=Helvetica;fontSize=11;fontColor=default;labelBackgroundColor=default;endArrow=none;endFill=0;" edge="1" parent="1" source="Rsi0PBeb2BQFO4qAarfA-14" target="YWg9dcSxjDB22ZO5rKcu-53">
          <mxGeometry relative="1" as="geometry">
            <Array as="points">
              <mxPoint x="780" y="410" />
              <mxPoint x="780" y="650" />
            </Array>
          </mxGeometry>
        </mxCell>
        <mxCell id="Rsi0PBeb2BQFO4qAarfA-14" value="Relationship" style="shape=rhombus;perimeter=rhombusPerimeter;whiteSpace=wrap;html=1;align=center;" vertex="1" parent="1">
          <mxGeometry x="600" y="380" width="120" height="60" as="geometry" />
        </mxCell>
        <mxCell id="Rsi0PBeb2BQFO4qAarfA-18" style="edgeStyle=orthogonalEdgeStyle;shape=connector;rounded=0;orthogonalLoop=1;jettySize=auto;html=1;exitX=0.5;exitY=1;exitDx=0;exitDy=0;entryX=0.5;entryY=0;entryDx=0;entryDy=0;strokeColor=default;align=center;verticalAlign=middle;fontFamily=Helvetica;fontSize=11;fontColor=default;labelBackgroundColor=default;endArrow=none;endFill=0;" edge="1" parent="1" source="Rsi0PBeb2BQFO4qAarfA-17" target="YWg9dcSxjDB22ZO5rKcu-14">
          <mxGeometry relative="1" as="geometry" />
        </mxCell>
        <mxCell id="Rsi0PBeb2BQFO4qAarfA-19" style="edgeStyle=orthogonalEdgeStyle;shape=connector;rounded=0;orthogonalLoop=1;jettySize=auto;html=1;exitX=0.5;exitY=0;exitDx=0;exitDy=0;strokeColor=default;align=center;verticalAlign=middle;fontFamily=Helvetica;fontSize=11;fontColor=default;labelBackgroundColor=default;endArrow=none;endFill=0;" edge="1" parent="1" source="Rsi0PBeb2BQFO4qAarfA-17" target="YWg9dcSxjDB22ZO5rKcu-66">
          <mxGeometry relative="1" as="geometry" />
        </mxCell>
        <mxCell id="Rsi0PBeb2BQFO4qAarfA-17" value="Relationship" style="shape=rhombus;perimeter=rhombusPerimeter;whiteSpace=wrap;html=1;align=center;" vertex="1" parent="1">
          <mxGeometry x="600" y="-90" width="120" height="60" as="geometry" />
        </mxCell>
        <mxCell id="Rsi0PBeb2BQFO4qAarfA-35" value="1" style="text;html=1;align=center;verticalAlign=middle;resizable=0;points=[];autosize=1;strokeColor=none;fillColor=none;fontFamily=Helvetica;fontSize=11;fontColor=default;labelBackgroundColor=default;" vertex="1" parent="1">
          <mxGeometry x="290" y="108" width="30" height="30" as="geometry" />
        </mxCell>
        <mxCell id="Rsi0PBeb2BQFO4qAarfA-36" value="0,n" style="text;html=1;align=center;verticalAlign=middle;resizable=0;points=[];autosize=1;strokeColor=none;fillColor=none;fontFamily=Helvetica;fontSize=11;fontColor=default;labelBackgroundColor=default;" vertex="1" parent="1">
          <mxGeometry x="530" y="148" width="40" height="30" as="geometry" />
        </mxCell>
        <mxCell id="Rsi0PBeb2BQFO4qAarfA-37" value="1" style="text;html=1;align=center;verticalAlign=middle;resizable=0;points=[];autosize=1;strokeColor=none;fillColor=none;fontFamily=Helvetica;fontSize=11;fontColor=default;labelBackgroundColor=default;" vertex="1" parent="1">
          <mxGeometry x="85" y="78" width="30" height="30" as="geometry" />
        </mxCell>
        <mxCell id="Rsi0PBeb2BQFO4qAarfA-38" value="0,n" style="text;html=1;align=center;verticalAlign=middle;resizable=0;points=[];autosize=1;strokeColor=none;fillColor=none;fontFamily=Helvetica;fontSize=11;fontColor=default;labelBackgroundColor=default;" vertex="1" parent="1">
          <mxGeometry x="535" y="568" width="40" height="30" as="geometry" />
        </mxCell>
        <mxCell id="Rsi0PBeb2BQFO4qAarfA-39" value="1" style="text;html=1;align=center;verticalAlign=middle;resizable=0;points=[];autosize=1;strokeColor=none;fillColor=none;fontFamily=Helvetica;fontSize=11;fontColor=default;labelBackgroundColor=default;" vertex="1" parent="1">
          <mxGeometry x="659" y="310" width="30" height="30" as="geometry" />
        </mxCell>
        <mxCell id="Rsi0PBeb2BQFO4qAarfA-40" value="0,n" style="text;html=1;align=center;verticalAlign=middle;resizable=0;points=[];autosize=1;strokeColor=none;fillColor=none;fontFamily=Helvetica;fontSize=11;fontColor=default;labelBackgroundColor=default;" vertex="1" parent="1">
          <mxGeometry x="745" y="648" width="40" height="30" as="geometry" />
        </mxCell>
        <mxCell id="Rsi0PBeb2BQFO4qAarfA-41" value="1,n" style="text;html=1;align=center;verticalAlign=middle;resizable=0;points=[];autosize=1;strokeColor=none;fillColor=none;fontFamily=Helvetica;fontSize=11;fontColor=default;labelBackgroundColor=default;" vertex="1" parent="1">
          <mxGeometry x="745" y="108" width="40" height="30" as="geometry" />
        </mxCell>
        <mxCell id="Rsi0PBeb2BQFO4qAarfA-42" value="0,n" style="text;html=1;align=center;verticalAlign=middle;resizable=0;points=[];autosize=1;strokeColor=none;fillColor=none;fontFamily=Helvetica;fontSize=11;fontColor=default;labelBackgroundColor=default;" vertex="1" parent="1">
          <mxGeometry x="1050" y="208" width="40" height="30" as="geometry" />
        </mxCell>
        <mxCell id="Rsi0PBeb2BQFO4qAarfA-43" value="1" style="text;html=1;align=center;verticalAlign=middle;resizable=0;points=[];autosize=1;strokeColor=none;fillColor=none;fontFamily=Helvetica;fontSize=11;fontColor=default;labelBackgroundColor=default;" vertex="1" parent="1">
          <mxGeometry x="661" y="48" width="30" height="30" as="geometry" />
        </mxCell>
        <mxCell id="Rsi0PBeb2BQFO4qAarfA-44" value="n" style="text;html=1;align=center;verticalAlign=middle;resizable=0;points=[];autosize=1;strokeColor=none;fillColor=none;fontFamily=Helvetica;fontSize=11;fontColor=default;labelBackgroundColor=default;" vertex="1" parent="1">
          <mxGeometry x="664" y="-181" width="30" height="30" as="geometry" />
        </mxCell>
        <mxCell id="Rsi0PBeb2BQFO4qAarfA-50" style="edgeStyle=orthogonalEdgeStyle;shape=connector;rounded=0;orthogonalLoop=1;jettySize=auto;html=1;exitX=0.5;exitY=1;exitDx=0;exitDy=0;entryX=0.5;entryY=0;entryDx=0;entryDy=0;strokeColor=default;align=center;verticalAlign=middle;fontFamily=Helvetica;fontSize=11;fontColor=default;labelBackgroundColor=default;endArrow=none;endFill=0;" edge="1" parent="1" source="Rsi0PBeb2BQFO4qAarfA-48" target="YWg9dcSxjDB22ZO5rKcu-1">
          <mxGeometry relative="1" as="geometry" />
        </mxCell>
        <mxCell id="Rsi0PBeb2BQFO4qAarfA-48" value="Relationship" style="shape=rhombus;perimeter=rhombusPerimeter;whiteSpace=wrap;html=1;align=center;" vertex="1" parent="1">
          <mxGeometry x="245" y="-60" width="120" height="60" as="geometry" />
        </mxCell>
        <mxCell id="Rsi0PBeb2BQFO4qAarfA-49" style="edgeStyle=orthogonalEdgeStyle;shape=connector;rounded=0;orthogonalLoop=1;jettySize=auto;html=1;exitX=0;exitY=0.5;exitDx=0;exitDy=0;entryX=0;entryY=0.5;entryDx=0;entryDy=0;strokeColor=default;align=center;verticalAlign=middle;fontFamily=Helvetica;fontSize=11;fontColor=default;labelBackgroundColor=default;endArrow=none;endFill=0;" edge="1" parent="1" source="YWg9dcSxjDB22ZO5rKcu-44" target="Rsi0PBeb2BQFO4qAarfA-48">
          <mxGeometry relative="1" as="geometry">
            <Array as="points">
              <mxPoint x="180" y="-196" />
              <mxPoint x="180" y="-30" />
            </Array>
          </mxGeometry>
        </mxCell>
        <mxCell id="Rsi0PBeb2BQFO4qAarfA-51" value="1" style="text;html=1;align=center;verticalAlign=middle;resizable=0;points=[];autosize=1;strokeColor=none;fillColor=none;fontFamily=Helvetica;fontSize=11;fontColor=default;labelBackgroundColor=default;" vertex="1" parent="1">
          <mxGeometry x="200" y="48" width="30" height="30" as="geometry" />
        </mxCell>
        <mxCell id="Rsi0PBeb2BQFO4qAarfA-52" value="n" style="text;html=1;align=center;verticalAlign=middle;resizable=0;points=[];autosize=1;strokeColor=none;fillColor=none;fontFamily=Helvetica;fontSize=11;fontColor=default;labelBackgroundColor=default;" vertex="1" parent="1">
          <mxGeometry x="185" y="-230" width="30" height="30" as="geometry" />
        </mxCell>
        <mxCell id="Rsi0PBeb2BQFO4qAarfA-55" style="edgeStyle=orthogonalEdgeStyle;shape=connector;rounded=0;orthogonalLoop=1;jettySize=auto;html=1;exitX=0.5;exitY=1;exitDx=0;exitDy=0;entryX=0.25;entryY=0;entryDx=0;entryDy=0;strokeColor=default;align=center;verticalAlign=middle;fontFamily=Helvetica;fontSize=11;fontColor=default;labelBackgroundColor=default;endArrow=none;endFill=0;" edge="1" parent="1" source="Rsi0PBeb2BQFO4qAarfA-53" target="YWg9dcSxjDB22ZO5rKcu-14">
          <mxGeometry relative="1" as="geometry" />
        </mxCell>
        <mxCell id="Rsi0PBeb2BQFO4qAarfA-53" value="Relationship" style="shape=rhombus;perimeter=rhombusPerimeter;whiteSpace=wrap;html=1;align=center;" vertex="1" parent="1">
          <mxGeometry x="415" y="-60" width="120" height="60" as="geometry" />
        </mxCell>
        <mxCell id="Rsi0PBeb2BQFO4qAarfA-54" style="edgeStyle=orthogonalEdgeStyle;shape=connector;rounded=0;orthogonalLoop=1;jettySize=auto;html=1;exitX=1;exitY=0.5;exitDx=0;exitDy=0;strokeColor=default;align=center;verticalAlign=middle;fontFamily=Helvetica;fontSize=11;fontColor=default;labelBackgroundColor=default;endArrow=none;endFill=0;" edge="1" parent="1" source="YWg9dcSxjDB22ZO5rKcu-47" target="Rsi0PBeb2BQFO4qAarfA-53">
          <mxGeometry relative="1" as="geometry" />
        </mxCell>
        <mxCell id="Rsi0PBeb2BQFO4qAarfA-56" value="&lt;div&gt;n&lt;/div&gt;" style="text;html=1;align=center;verticalAlign=middle;resizable=0;points=[];autosize=1;strokeColor=none;fillColor=none;fontFamily=Helvetica;fontSize=11;fontColor=default;labelBackgroundColor=default;" vertex="1" parent="1">
          <mxGeometry x="395" y="-192" width="30" height="30" as="geometry" />
        </mxCell>
        <mxCell id="Rsi0PBeb2BQFO4qAarfA-57" value="1" style="text;html=1;align=center;verticalAlign=middle;resizable=0;points=[];autosize=1;strokeColor=none;fillColor=none;fontFamily=Helvetica;fontSize=11;fontColor=default;labelBackgroundColor=default;" vertex="1" parent="1">
          <mxGeometry x="585" y="48" width="30" height="30" as="geometry" />
        </mxCell>
      </root>
    </mxGraphModel>
  </diagram>
</mxfile>
